<?xml version="1.0" encoding="utf-8"?>
<!-- Generator: Adobe Illustrator 27.0.1, SVG Export Plug-In . SVG Version: 6.00 Build 0)  -->
<svg version="1.1" id="Layer_1" xmlns="http://www.w3.org/2000/svg" xmlns:xlink="http://www.w3.org/1999/xlink" x="0px" y="0px"
	 viewBox="0 0 512 512" style="enable-background:new 0 0 512 512;" xml:space="preserve">
<style type="text/css">
	.st0{fill:#F4F2E9;}
	.st1{fill:#068D75;}
	.st2{fill:#FBC7B3;}
	.st3{fill:url(#SVGID_1_);}
	.st4{fill:#02A185;}
	.st5{fill:url(#SVGID_00000014599229005700147200000003615575575163985794_);}
	.st6{fill:url(#SVGID_00000146462613001070405450000011500590752748661182_);}
	.st7{fill:#275AA9;}
	.st8{fill:#2B2C2B;}
	.st9{fill:#4274B9;}
	.st10{fill:url(#SVGID_00000094608748148986275010000015965229181174075554_);}
	.st11{fill:#4172B9;}
</style>
<rect class="st0" width="512" height="512"/>
<g>
	<polygon class="st1" points="296.7,378.8 355.3,388.8 352.4,416 272.1,407.9 	"/>
	<polygon class="st1" points="215.3,378.8 156.7,388.8 159.6,416 239.9,407.9 	"/>
	<path class="st2" d="M357.9,410.5c-78.4-34.7-26.7-122-26.7-122L256,289l-75.1-0.4c0,0,51.7,87.3-26.7,122v13L256,490.1l101.9-66.6
		V410.5z"/>
	<polygon class="st1" points="256,490.1 243.9,441.3 230.6,473.6 	"/>
	<linearGradient id="SVGID_1_" gradientUnits="userSpaceOnUse" x1="231.3373" y1="361.8777" x2="205.1285" y2="402.0947">
		<stop  offset="0" style="stop-color:#E39372"/>
		<stop  offset="1" style="stop-color:#FBC7B3"/>
	</linearGradient>
	<path class="st3" d="M320.1,375.6c-7.9-17.7-6.3-37.3-2.3-53.4L253.6,289l-41.1-0.2l-31.6-0.1c1.4,2.5,29.3,51.4,9.6,89.9
		c0.5,2.5-0.1,4.9-2.2,7.2c10,24.5,33.6,47.7,54.5,50.1C271.1,439.1,303.4,405.4,320.1,375.6z"/>
	<polygon class="st4" points="136.1,423.4 156.7,388.8 243.9,441.3 233.1,501 	"/>
	<polygon class="st1" points="256,490.1 268.1,441.3 281.4,473.6 	"/>
	<polygon class="st4" points="375.9,423.4 355.3,388.8 268.1,441.3 278.9,501 	"/>
	<g>
		
			<linearGradient id="SVGID_00000070804211515701349500000000091492899976933303_" gradientUnits="userSpaceOnUse" x1="168.1656" y1="250.4218" x2="134.264" y2="202.7357" gradientTransform="matrix(0.9996 -2.940000e-02 2.940000e-02 0.9996 -7.3757 3.287)">
			<stop  offset="0" style="stop-color:#E8A389"/>
			<stop  offset="1" style="stop-color:#FBC7B3"/>
		</linearGradient>
		<path style="fill:url(#SVGID_00000070804211515701349500000000091492899976933303_);" d="M157.8,199.6c0,0-13.5-13.8-24.2,0
			c-10.7,13.8,8.8,74.2,33.8,61.3C192.3,247.9,157.8,199.6,157.8,199.6z"/>
		
			<linearGradient id="SVGID_00000119814313617387994910000001294021278043774596_" gradientUnits="userSpaceOnUse" x1="-178.9112" y1="240.2137" x2="-212.8129" y2="192.5275" gradientTransform="matrix(-0.9996 -2.940000e-02 -2.940000e-02 0.9996 172.1379 3.287)">
			<stop  offset="0" style="stop-color:#E8A389"/>
			<stop  offset="1" style="stop-color:#FBC7B3"/>
		</linearGradient>
		<path style="fill:url(#SVGID_00000119814313617387994910000001294021278043774596_);" d="M354.2,199.6c0,0,13.5-13.8,24.2,0
			c10.7,13.8-8.8,74.2-33.8,61.3C319.7,247.9,354.2,199.6,354.2,199.6z"/>
	</g>
	<path class="st2" d="M255.9,77.5c39.2,0,100.1,14,101.9,101.9c0,0-15.7,126.7-22.7,144.7c-5.9,15.2-31.3,29-58.3,44.1
		c-6.2,3.5-34.9,3.5-41.1,0c-27-15.1-52.9-28.9-58.9-44.1c-7-18-22.7-144.7-22.7-144.7C155.9,91.5,216.8,77.5,255.9,77.5z"/>
	<g>
		<g>
			<path class="st7" d="M269.7,173.6c0,0,11.6-20.6,33.5-17.7c21.8,2.9,27.1,7,27.1,7l-2.9,9.3c0,0-16.1-5.1-25.9-5.5
				c-12.8-0.6-26.5,16-26.5,16L269.7,173.6z"/>
		</g>
		<g>
			<path class="st7" d="M242.3,173.6c0,0-11.6-20.6-33.5-17.7c-21.8,2.9-27.1,7-27.1,7l2.9,9.3c0,0,16.1-5.1,25.9-5.5
				c12.8-0.6,26.5,16,26.5,16L242.3,173.6z"/>
		</g>
	</g>
	<path class="st8" d="M364.6,194l-14.4-9.4l-0.1,0.3c-0.7-2.1-1.8-4-3.4-5.6c-2.7-2.8-6.4-4.1-10.4-4.1h-55c-4,0-7.7,1.3-10.4,4.1
		c-2.1,2.2-3.4,4.7-3.8,7.5h-20.6c-0.5-2.8-1.8-5.4-3.9-7.5c-2.7-2.8-6.4-4.1-10.4-4.1h-55c-4,0-7.7,1.3-10.4,4.1
		c-1.7,1.8-2.8,3.7-3.5,5.9L150,194l5,2.2l8.4-2l3.9,40.8c0.4,8,7.2,14.5,15.3,14.5h46.5c8.1,0,14.8-6.5,15.1-14.6l2.1-36.6h21.6
		l3.5,36.7c0.4,8,7.2,14.5,15.3,14.5h46.5c8.1,0,14.8-6.5,15.1-14.6l2.3-41l9,2.2L364.6,194z M238.9,234.4c-0.1,3.5-5.3,9.4-8.8,9.4
		h-48.6c-3.5,0-8.8-5.9-8.9-9.4c0,0,0,0.2,0,0.1l-1.2-45.4c-0.1-1.6,0.5-3,1.6-4.2c1.1-1.2,2.6-1.7,4.3-1.7h55
		c1.7,0,3.2,0.5,4.3,1.7c1.1,1.2,1.7,2.5,1.7,4.2L238.9,234.4C238.9,234.5,238.9,234.4,238.9,234.4z M343,234.4
		c-0.1,3.5-5.3,9.4-8.8,9.4h-48.6c-3.5,0-8.8-5.9-8.9-9.4c0,0,0,0.2,0,0.1l-1.2-45.4c-0.1-1.6,0.5-3,1.6-4.2
		c1.1-1.2,2.6-1.7,4.3-1.7h55c1.7,0,3.2,0.5,4.3,1.7c1.1,1.2,1.7,2.5,1.7,4.2L343,234.4C343,234.5,343,234.4,343,234.4z"/>
	<path class="st9" d="M365,110.9c-7.7-28.6-15.1-38.2-15.1-38.2l-7.1,8.8c-27.6-44.9-37.8-44.9-37.8-44.9l-3.8,18.9
		C299.8,41.8,277.6,25,277.6,25l-6.5,12.8c-2.4-18.4-12.8-25.5-14-26.6V11c0,0-0.5,0-0.6,0.1c-0.1-0.1-0.6-0.1-0.6-0.1v0.2
		c-1.2,1.1-11.5,8.2-13.9,26.6L235.5,25c0,0-22.1,16.8-23.5,30.5l-3.7-18.9c0,0-10.2,0-37.8,44.9l-7.1-8.8c0,0-7.5,9.6-15.1,38.2
		c0,0-22.5,39.3,7.4,87.3l3.1,19.8l7.6-14v-34.7c0,0,7-53.5,89.6-41.9h1.2c82.6-11.6,89.6,41.9,89.6,41.9V204l7.6,14l3.2-19.8
		C387.5,150.2,365,110.9,365,110.9z"/>
	
		<linearGradient id="SVGID_00000098190744951480774200000001960826510818229436_" gradientUnits="userSpaceOnUse" x1="256.5883" y1="104.1117" x2="256.5883" y2="39.5154">
		<stop  offset="0" style="stop-color:#4274B9"/>
		<stop  offset="0.9949" style="stop-color:#2F62AE"/>
	</linearGradient>
	<path style="fill:url(#SVGID_00000098190744951480774200000001960826510818229436_);" d="M365,110.9c-7.7-28.6-15.1-38.2-15.1-38.2
		l-7.1,8.8c-27.6-44.9-37.8-44.9-37.8-44.9l-3.8,18.9C299.8,41.8,277.6,25,277.6,25l-6.5,12.8c-2.4-18.4-12.8-25.5-14-26.6V11
		c0,0-0.5,0-0.6,0.1c-0.1-0.1-0.6-0.1-0.6-0.1v0.2c-1.2,1.1-11.5,8.2-13.9,26.6L235.5,25c0,0-22.1,16.8-23.5,30.5l-3.7-18.9
		c0,0-10.2,0-37.8,44.9l-7.1-8.8c0,0-7.5,9.6-15.1,38.2c0,0-22.5,39.3,7.4,87.3l0,0c-13.7-33.3,11.5-68.6,11.5-68.6
		c6.3-23.6,12.5-31.5,12.5-31.5l5.8,7.2c22.8-37,31.2-37,31.2-37l3.1,15.6c1.2-11.3,19.4-25.2,19.4-25.2l5.4,10.6
		c2-15.2,10.3-21.1,11.4-22c1.2,0.9,10.1,6.8,12.1,22l5.9-10.6c0,0,18.3,13.9,19.5,25.2l3.1-15.6c0,0,8.4,0,31.2,37l5.8-7.2
		c0,0,6.2,7.9,12.5,31.5c0,0,25.2,35.4,11.5,68.6l0,0C387.5,150.2,365,110.9,365,110.9z M255.9,47.1
		C255.9,47.1,255.9,47.1,255.9,47.1C255.9,47.1,256,47.1,255.9,47.1z"/>
	<path class="st11" d="M302.1,91c0,0-5.8,8.5-8.7,7.3c0,0-1.1-22.9-15.1-27.8c0,0,0.2,16.1-6.2,16.1s-1-25.7-16.1-38.1
		c-15.1,12.5-9.9,38.1-16.3,38.1s-6.4-16.1-6.4-16.1c-14,4.9-15.1,27.8-15.1,27.8c-2.9,1.2-8.7-7.3-8.7-7.3
		c-12.3,5.8-16,36.5-16.6,43.6c13.3-7.2,33.3-4.5,63.1-0.3h1.2c28.7-4,48.3-7.2,61.6-0.5C317.9,125.6,314,96.7,302.1,91z"/>
</g>
</svg>
